<?xml version="1.0" ?><!DOCTYPE svg  PUBLIC '-//W3C//DTD SVG 1.1//EN'  'http://www.w3.org/Graphics/SVG/1.1/DTD/svg11.dtd'><svg viewBox="0 0 512 512" xmlns="http://www.w3.org/2000/svg" xmlns:xlink="http://www.w3.org/1999/xlink"><style>:root>svg{display:none}:root>svg:target{display:block}</style><svg style="enable-background:new 0 0 512 512" xml:space="preserve" viewBox="0 0 512 512" id="211818_search_icon" xmlns="http://www.w3.org/2000/svg"><path d="M448.3 424.7 335 311.3c20.8-26 33.3-59.1 33.3-95.1 0-84.1-68.1-152.2-152-152.2-84 0-152 68.2-152 152.2s68.1 152.2 152 152.2c36.2 0 69.4-12.7 95.5-33.8L425 448l23.3-23.3zM120.1 312.6c-25.7-25.7-39.8-59.9-39.8-96.3s14.2-70.6 39.8-96.3 59.9-40 96.2-40c36.3 0 70.5 14.2 96.2 39.9s39.8 59.9 39.8 96.3-14.2 70.6-39.8 96.3c-25.7 25.7-59.9 39.9-96.2 39.9-36.3.1-70.5-14.1-96.2-39.8z"/></svg><svg fill="#228BE6" viewBox="0 0 26 26" id="icons8" xmlns="http://www.w3.org/2000/svg"><path d="m22.567 4.73-1.795-1.219a1.09 1.09 0 0 0-1.507.287l-8.787 12.959-4.039-4.039a1.09 1.09 0 0 0-1.533 0l-1.533 1.536a1.084 1.084 0 0 0 0 1.534L9.582 22c.349.347.895.615 1.387.615s.988-.31 1.307-.774l10.58-15.606a1.085 1.085 0 0 0-.289-1.505z"/></svg></svg>